<svg id="wave" style="transform:rotate(180deg); transition: 0.3s" viewBox="0 0 1440 260" version="1.1" xmlns="http://www.w3.org/2000/svg"><defs><linearGradient id="sw-gradient-0" x1="0" x2="0" y1="1" y2="0"><stop stop-color="rgba(243, 106, 62, 1)" offset="0%"></stop><stop stop-color="rgba(255, 179, 11, 1)" offset="100%"></stop></linearGradient></defs><path style="transform:translate(0, 0px); opacity:1" fill="url(#sw-gradient-0)" d="M0,130L26.7,117C53.3,104,107,78,160,91C213.3,104,267,156,320,186.3C373.3,217,427,225,480,203.7C533.3,182,587,130,640,130C693.3,130,747,182,800,173.3C853.3,165,907,95,960,56.3C1013.3,17,1067,9,1120,26C1173.3,43,1227,87,1280,108.3C1333.3,130,1387,130,1440,130C1493.3,130,1547,130,1600,134.3C1653.3,139,1707,147,1760,156C1813.3,165,1867,173,1920,186.3C1973.3,199,2027,217,2080,199.3C2133.3,182,2187,130,2240,130C2293.3,130,2347,182,2400,199.3C2453.3,217,2507,199,2560,195C2613.3,191,2667,199,2720,186.3C2773.3,173,2827,139,2880,134.3C2933.3,130,2987,156,3040,138.7C3093.3,121,3147,61,3200,56.3C3253.3,52,3307,104,3360,125.7C3413.3,147,3467,139,3520,147.3C3573.3,156,3627,182,3680,182C3733.3,182,3787,156,3813,143L3840,130L3840,260L3813.3,260C3786.7,260,3733,260,3680,260C3626.7,260,3573,260,3520,260C3466.7,260,3413,260,3360,260C3306.7,260,3253,260,3200,260C3146.7,260,3093,260,3040,260C2986.7,260,2933,260,2880,260C2826.7,260,2773,260,2720,260C2666.7,260,2613,260,2560,260C2506.7,260,2453,260,2400,260C2346.7,260,2293,260,2240,260C2186.7,260,2133,260,2080,260C2026.7,260,1973,260,1920,260C1866.7,260,1813,260,1760,260C1706.7,260,1653,260,1600,260C1546.7,260,1493,260,1440,260C1386.7,260,1333,260,1280,260C1226.7,260,1173,260,1120,260C1066.7,260,1013,260,960,260C906.7,260,853,260,800,260C746.7,260,693,260,640,260C586.7,260,533,260,480,260C426.7,260,373,260,320,260C266.7,260,213,260,160,260C106.7,260,53,260,27,260L0,260Z"></path><defs><linearGradient id="sw-gradient-1" x1="0" x2="0" y1="1" y2="0"><stop stop-color="rgba(243, 106, 62, 1)" offset="0%"></stop><stop stop-color="rgba(255, 179, 11, 1)" offset="100%"></stop></linearGradient></defs><path style="transform:translate(0, 50px); opacity:0.9" fill="url(#sw-gradient-1)" d="M0,78L26.7,65C53.3,52,107,26,160,52C213.3,78,267,156,320,173.3C373.3,191,427,147,480,121.3C533.3,95,587,87,640,82.3C693.3,78,747,78,800,82.3C853.3,87,907,95,960,104C1013.3,113,1067,121,1120,143C1173.3,165,1227,199,1280,195C1333.3,191,1387,147,1440,112.7C1493.3,78,1547,52,1600,47.7C1653.3,43,1707,61,1760,60.7C1813.3,61,1867,43,1920,34.7C1973.3,26,2027,26,2080,26C2133.3,26,2187,26,2240,60.7C2293.3,95,2347,165,2400,169C2453.3,173,2507,113,2560,82.3C2613.3,52,2667,52,2720,82.3C2773.3,113,2827,173,2880,173.3C2933.3,173,2987,113,3040,73.7C3093.3,35,3147,17,3200,39C3253.3,61,3307,121,3360,160.3C3413.3,199,3467,217,3520,186.3C3573.3,156,3627,78,3680,65C3733.3,52,3787,104,3813,130L3840,156L3840,260L3813.3,260C3786.7,260,3733,260,3680,260C3626.7,260,3573,260,3520,260C3466.7,260,3413,260,3360,260C3306.7,260,3253,260,3200,260C3146.7,260,3093,260,3040,260C2986.7,260,2933,260,2880,260C2826.7,260,2773,260,2720,260C2666.7,260,2613,260,2560,260C2506.7,260,2453,260,2400,260C2346.7,260,2293,260,2240,260C2186.7,260,2133,260,2080,260C2026.7,260,1973,260,1920,260C1866.7,260,1813,260,1760,260C1706.7,260,1653,260,1600,260C1546.7,260,1493,260,1440,260C1386.7,260,1333,260,1280,260C1226.7,260,1173,260,1120,260C1066.7,260,1013,260,960,260C906.7,260,853,260,800,260C746.7,260,693,260,640,260C586.7,260,533,260,480,260C426.7,260,373,260,320,260C266.7,260,213,260,160,260C106.7,260,53,260,27,260L0,260Z"></path></svg>
